<?xml version="1.0" encoding="UTF-8" standalone="no"?>
<!-- Generator: Adobe Illustrator 16.0.4, SVG Export Plug-In . SVG Version: 6.00 Build 0)  -->

<svg
   version="1.1"
   id="Layer_1"
   x="0px"
   y="0px"
   width="455.47244"
   height="102.206"
   viewBox="71.07 323.663 455.47246 102.206"
   enable-background="new 71.07 323.663 469.86 110.329"
   xml:space="preserve"
   sodipodi:docname="wb_eclipse_logo.svg"
   inkscape:version="1.1 (c68e22c387, 2021-05-23)"
   xmlns:inkscape="http://www.inkscape.org/namespaces/inkscape"
   xmlns:sodipodi="http://sodipodi.sourceforge.net/DTD/sodipodi-0.dtd"
   xmlns="http://www.w3.org/2000/svg"
   xmlns:svg="http://www.w3.org/2000/svg"><defs
   id="defs66"><rect
     x="98.59066"
     y="-57.733269"
     width="386.8129"
     height="159.43263"
     id="rect51666" /><rect
     x="123.46037"
     y="5.7733269"
     width="344.17911"
     height="97.702454"
     id="rect8040" /></defs><sodipodi:namedview
   id="namedview64"
   pagecolor="#ffffff"
   bordercolor="#666666"
   borderopacity="1.0"
   inkscape:pageshadow="2"
   inkscape:pageopacity="0.0"
   inkscape:pagecheckerboard="0"
   showgrid="false"
   fit-margin-top="0"
   fit-margin-left="0"
   fit-margin-right="0"
   fit-margin-bottom="0"
   inkscape:zoom="2.2517346"
   inkscape:cx="89.708618"
   inkscape:cy="51.293789"
   inkscape:window-width="3840"
   inkscape:window-height="2097"
   inkscape:window-x="3832"
   inkscape:window-y="-8"
   inkscape:window-maximized="1"
   inkscape:current-layer="Layer_1" />
<path
   fill="#2c2255"
   d="M 101.124,388.873 H 84.38 c 2.217,7.605 6.331,14.421 12.354,20.445 9.602,9.604 21.148,14.398 34.65,14.398 2.699,0 5.314,-0.201 7.854,-0.584 10.17,-1.535 19.074,-6.133 26.703,-13.814 6.062,-6.021 10.205,-12.84 12.439,-20.445 h -6.795 -9.936 z"
   id="path2" />
<g
   id="g8"
   transform="translate(0,-4.063)">
	<path
   fill="#2c2255"
   d="m 91.891,370.194 h -8.747 c -0.32,1.922 -0.538,3.884 -0.637,5.896 h 10.396 5.215 75.275 6.871 c -0.1,-2.012 -0.318,-3.974 -0.641,-5.896"
   id="path4" />
	<path
   fill="#2c2255"
   d="m 82.507,381.565 c 0.099,2.013 0.316,3.975 0.637,5.896 h 9.094 6.893 73.648 6.846 c 0.322,-1.921 0.542,-3.883 0.642,-5.896"
   id="path6" />
</g>
<path
   fill="#2c2255"
   d="m 178.382,360.655 c -2.232,-7.626 -6.376,-14.474 -12.441,-20.54 -7.609,-7.609 -16.488,-12.174 -26.625,-13.71 -2.564,-0.389 -5.205,-0.593 -7.932,-0.593 -13.502,0 -25.049,4.769 -34.65,14.303 -6.025,6.066 -10.141,12.914 -12.357,20.54"
   id="path10" />
<g
   id="g14"
   transform="translate(0,-4.063)">
	<path
   fill="#f7941e"
   d="m 79.6,378.829 c 0,-25.824 19.395,-47.281 44.626,-51.055 -0.626,-0.023 -1.255,-0.048 -1.887,-0.048 -28.314,0 -51.269,22.88 -51.269,51.103 0,28.224 22.954,51.103 51.269,51.103 0.634,0 1.263,-0.023 1.891,-0.047 C 98.995,426.111 79.6,404.654 79.6,378.829 Z"
   id="path12" />
</g>








<g
   id="g53"
   transform="translate(0,-4.063)">
	
		<linearGradient
   id="SVGID_1_"
   gradientUnits="userSpaceOnUse"
   x1="387.3848"
   y1="229.9238"
   x2="387.3848"
   y2="156.28889"
   gradientTransform="translate(-256,204.5)">
		<stop
   offset="0.3033"
   style="stop-color:#473788"
   id="stop32" />
		<stop
   offset="0.872"
   style="stop-color:#2C2255"
   id="stop34" />
	</linearGradient>
	<path
   fill="url(#SVGID_1_)"
   d="m 164.653,376.089 c -0.164,-2.021 -0.504,-3.992 -1.012,-5.896 h -64.51 c -0.508,1.903 -0.849,3.874 -1.013,5.896 z"
   id="path37"
   style="fill:url(#SVGID_1_)" />
	
		<linearGradient
   id="SVGID_2_"
   gradientUnits="userSpaceOnUse"
   x1="387.38571"
   y1="229.9248"
   x2="387.38571"
   y2="156.2899"
   gradientTransform="translate(-256,204.5)">
		<stop
   offset="0.3033"
   style="stop-color:#473788"
   id="stop39" />
		<stop
   offset="0.872"
   style="stop-color:#2C2255"
   id="stop41" />
	</linearGradient>
	<path
   fill="url(#SVGID_2_)"
   d="M 164.653,381.565 H 98.119 c 0.164,2.021 0.503,3.992 1.012,5.896 h 64.511 c 0.508,-1.904 0.847,-3.875 1.011,-5.896 z"
   id="path44"
   style="fill:url(#SVGID_2_)" />
	
		<linearGradient
   id="SVGID_3_"
   gradientUnits="userSpaceOnUse"
   x1="387.38571"
   y1="229.9229"
   x2="387.38571"
   y2="156.2915"
   gradientTransform="translate(-256,204.5)">
		<stop
   offset="0.3033"
   style="stop-color:#473788"
   id="stop46" />
		<stop
   offset="0.8631"
   style="stop-color:#2C2255"
   id="stop48" />
	</linearGradient>
	<path
   fill="url(#SVGID_3_)"
   d="m 131.386,412.217 c 13.397,0 24.945,-7.893 30.263,-19.281 h -60.526 c 5.318,11.388 16.866,19.281 30.263,19.281 z"
   id="path51"
   style="fill:url(#SVGID_3_)" />
</g>
<g
   id="g61"
   transform="translate(0,-4.063)">
	<path
   fill="#ffffff"
   d="m 93.188,381.565 h 4.884 66.706 8.763 6.657 c 0.046,-0.871 0.072,-1.748 0.072,-2.631 0,-0.955 -0.035,-1.902 -0.089,-2.845 H 173.54 164.777 98.071 92.842 82.507 c -0.054,0.942 -0.089,1.89 -0.089,2.845 0,0.883 0.026,1.76 0.072,2.631 z"
   id="path55" />
	<path
   fill="#ffffff"
   d="M 100.928,364.718 H 84.376 c -0.544,1.783 -0.895,3.612 -1.232,5.476 h 8.525 7.259 64.679 9.16 6.547 c -0.338,-1.863 -0.773,-3.692 -1.316,-5.476"
   id="path57" />
	<path
   fill="#ffffff"
   d="m 173.026,387.46 h -9.16 -64.678 -6.912 -9.133 c 0.328,1.863 0.701,3.691 1.236,5.476 h 16.807 60.682 9.962 6.488 c 0.534,-1.784 0.965,-3.612 1.294,-5.476 z"
   id="path59" />
</g>
<text
   xml:space="preserve"
   transform="translate(71.07,319.6)"
   id="text51664"
   style="font-style:normal;font-weight:normal;font-size:40px;line-height:1.25;font-family:sans-serif;white-space:pre;shape-inside:url(#rect51666);fill:#000000;fill-opacity:1;stroke:none" /><path
   style="fill:#2c2255;fill-opacity:1;stroke-width:0.444102"
   d="m 199.19302,390.54531 c -0.10703,-0.30532 -2.00838,-7.44982 -4.22523,-15.87665 -2.21685,-8.42684 -4.11936,-15.5822 -4.22781,-15.90079 -0.14761,-0.43367 0.32581,-0.5453 1.88349,-0.44411 l 2.08067,0.13517 3.35491,13.40157 c 1.8452,7.37086 3.47871,13.52335 3.63003,13.6722 0.15131,0.14884 1.82678,-5.94168 3.72326,-13.5345 l 3.44813,-13.80513 1.98187,0.13293 1.98187,0.13293 3.34539,13.54511 c 1.83996,7.44982 3.47398,13.68957 3.63116,13.86613 0.15717,0.17656 1.85306,-5.9687 3.76864,-13.65613 l 3.48286,-13.97716 h 1.90143 1.90143 l -2.17903,8.32691 c -1.19846,4.57981 -3.11766,11.97411 -4.26489,16.43178 l -2.08587,8.10486 -2.2398,-0.002 -2.2398,-0.002 -3.51391,-13.8032 c -1.93265,-7.59176 -3.65369,-13.5363 -3.82453,-13.2101 -0.17084,0.32621 -1.78369,6.53852 -3.5841,13.80514 l -3.27348,13.21204 h -2.13104 c -1.30499,0 -2.20648,-0.21519 -2.32565,-0.55513 z"
   id="path67520" /><path
   style="fill:#2c2255;fill-opacity:1;stroke-width:0.444102"
   d="m 237.60827,378.88763 v -12.21281 h 1.77641 1.77641 v 12.21281 12.2128 h -1.77641 -1.77641 z"
   id="path67559" /><path
   style="fill:#2c2255;fill-opacity:1;stroke-width:0.444102"
   d="m 237.16417,360.23534 v -1.99846 h 2.22051 2.22051 v 1.99846 1.99846 h -2.22051 -2.22051 z"
   id="path67598" /><path
   style="fill:#2c2255;fill-opacity:1;stroke-width:0.444102"
   d="m 250.04313,378.88763 v -12.21281 h 1.77641 c 1.67772,0 1.77641,0.074 1.77641,1.33231 0,1.31344 0.56973,1.76278 1.11547,0.87975 0.15383,-0.2489 1.31474,-0.97962 2.5798,-1.62382 3.78128,-1.92552 8.32641,-1.47666 10.61113,1.04793 1.8639,2.05958 2.12538,3.71418 2.12538,13.44904 v 9.3404 h -1.7376 -1.7376 l -0.14984,-9.23578 c -0.17123,-10.55458 -0.36999,-11.24352 -3.48599,-12.08257 -2.23382,-0.6015 -4.07348,-0.26642 -6.89187,1.25531 l -2.20683,1.19153 -0.11986,9.43575 -0.11986,9.43576 h -1.76757 -1.76758 z"
   id="path67674" /><path
   style="fill:#2c2255;fill-opacity:1;stroke-width:0.444102"
   d="m 282.68463,390.80784 c -3.89068,-2.0475 -5.66167,-5.7274 -5.6605,-11.76182 6.1e-4,-3.13192 0.20146,-4.27694 1.09108,-6.22013 1.27441,-2.78368 3.45668,-5.11652 5.66626,-6.05721 2.01053,-0.85594 6.50321,-0.8072 8.65998,0.094 0.92194,0.38522 1.75177,0.70039 1.84407,0.70039 0.0923,0 0.16782,-2.39815 0.16782,-5.32923 v -5.32922 h 1.77641 1.77641 v 17.09793 17.09793 h -1.77641 c -1.67772,0 -1.77641,-0.074 -1.77641,-1.33231 0,-1.33601 -0.57191,-1.75927 -1.13847,-0.84256 -0.16647,0.26936 -1.32738,0.96687 -2.57979,1.55002 -2.66937,1.24292 -6.05452,1.38262 -8.05045,0.33225 z m 9.13549,-4.0374 2.41117,-1.22128 0.12179,-7.44561 0.1218,-7.44561 -1.23205,-0.47957 c -0.67763,-0.26376 -2.36389,-0.58661 -3.74725,-0.71745 -3.34489,-0.31636 -6.00859,0.91341 -7.42073,3.42598 -2.24613,3.99645 -1.53542,11.56081 1.31124,13.95612 1.92536,1.62008 5.14695,1.59235 8.43403,-0.0726 z"
   id="path67713" /><path
   style="fill:#2c2255;fill-opacity:1;stroke-width:0.444102"
   d="m 312.2783,390.9365 c -2.28502,-0.82692 -4.71528,-3.10615 -5.82166,-5.45986 -1.38095,-2.93785 -1.70124,-8.02246 -0.71832,-11.40357 1.71485,-5.89889 7.52299,-9.24531 13.38936,-7.71444 2.98437,0.77879 5.10502,2.47087 6.65544,5.31042 1.77515,3.25112 2.0809,9.09905 0.67129,12.83944 -1.12377,2.98191 -3.97759,5.8471 -6.52973,6.55575 -2.21769,0.61579 -5.75507,0.55669 -7.64638,-0.12774 z m 7.49579,-3.33026 c 2.46806,-1.32313 3.67911,-4.16519 3.67911,-8.634 0,-4.38415 -0.58795,-6.38672 -2.37889,-8.10255 -1.15435,-1.10594 -1.74427,-1.30112 -4.31973,-1.4292 -3.68358,-0.1832 -5.50513,0.77735 -6.77374,3.57196 -0.98872,2.17807 -1.19361,8.11618 -0.36514,10.583 1.41782,4.22168 6.22479,6.1196 10.15839,4.01079 z"
   id="path67752" /><path
   style="fill:#2c2255;fill-opacity:1;stroke-width:0.444102"
   d=""
   id="path67791" /><path
   style="fill:#2c2255;fill-opacity:1;stroke-width:0.444102"
   d="m 335.58497,379.4617 c -1.68108,-6.42214 -3.14662,-11.92643 -3.25675,-12.23175 -0.14156,-0.39248 0.39615,-0.55513 1.83525,-0.55513 1.1195,0 2.03546,0.12817 2.03546,0.28483 0,0.6789 4.14166,17.76163 4.44327,18.32674 0.20663,0.38715 1.50058,-2.99682 3.39628,-8.88204 l 3.06247,-9.50748 1.54498,-0.1313 1.54498,-0.1313 3.04916,9.23539 c 1.67704,5.07947 3.20017,9.4002 3.38474,9.60162 0.18457,0.20142 0.63997,-0.99765 1.012,-2.66461 0.37203,-1.66696 1.32966,-5.97857 2.12807,-9.58135 l 1.45165,-6.5505 h 1.84838 1.84837 l -3.15946,12.10178 -3.15946,12.10178 h -1.72732 -1.72732 l -3.1342,-9.43717 c -1.7238,-5.19044 -3.24108,-9.43717 -3.37173,-9.43717 -0.13065,0 -1.64681,4.24673 -3.36925,9.43717 l -3.13171,9.43717 -1.74567,0.12998 -1.74567,0.12997 z"
   id="path67830" /><path
   style="fill:#2c2255;fill-opacity:1;stroke-width:0.444102"
   d="m 371.7271,374.65937 v -16.55124 l 7.66076,0.23188 c 8.08568,0.24475 10.10471,0.68534 12.21174,2.66478 0.55565,0.52201 1.21638,1.71451 1.46828,2.64999 0.7194,2.67168 0.1084,4.68754 -2.08588,6.88182 -1.06421,1.0642 -1.93492,2.0046 -1.93492,2.08977 0,0.0852 0.59169,0.27319 1.31488,0.41783 1.79687,0.35937 4.74039,3.11822 5.37341,5.03629 1.16923,3.54282 -0.31456,8.26081 -3.27168,10.40294 -2.66233,1.92858 -4.27649,2.24187 -12.85378,2.49477 l -7.88281,0.23241 z m 17.05799,12.00004 c 2.22757,-1.1482 3.15055,-2.84987 3.13359,-5.7773 -0.0273,-4.70989 -1.9384,-5.76935 -10.40707,-5.76935 h -5.78759 v 6.25184 6.25184 l 5.88435,-0.14544 c 4.11663,-0.10175 6.27259,-0.34555 7.17672,-0.81159 z m -2.67132,-15.52584 c 2.11975,-0.80592 2.93331,-2.05066 2.93331,-4.48795 0,-4.19621 -1.15536,-4.85592 -8.50421,-4.85592 h -4.81885 v 4.88512 4.88512 h 4.63416 c 2.54879,0 5.1388,-0.19186 5.75559,-0.42637 z"
   id="path67869" /><path
   style="fill:#2c2255;fill-opacity:1;stroke-width:0.444102"
   d="m 447.42639,374.0025 c 1.2e-4,-9.52599 0.0589,-13.35979 0.13068,-8.51955 0.0718,4.84023 0.0716,12.63422 -2.3e-4,17.31998 -0.0719,4.68575 -0.13058,0.72556 -0.13045,-8.80043 z"
   id="path67982" /><path
   style="fill:#2c2255;fill-opacity:1;stroke-width:0.444102"
   d="m 460.29717,390.94129 c -1.95191,-0.88459 -4.43033,-3.97692 -5.1374,-6.40995 -0.3342,-1.15 -0.60365,-3.79351 -0.59878,-5.87448 0.008,-3.22986 0.19041,-4.15468 1.24951,-6.31939 2.26629,-4.63213 6.65658,-7.00605 11.32096,-6.12147 1.2771,0.2422 2.70317,0.64436 3.16905,0.89369 1.68411,0.90131 1.79366,0.60353 1.79366,-4.87589 v -5.32923 h 1.7764 1.77641 v 17.09793 17.09793 h -1.77641 c -1.67772,0 -1.7764,-0.074 -1.7764,-1.3323 0,-0.73277 -0.0867,-1.33231 -0.19255,-1.33231 -0.1059,0 -1.22408,0.64124 -2.48485,1.42498 -2.67253,1.66133 -6.76738,2.14649 -9.1196,1.08049 z m 9.70707,-4.42685 2.08993,-1.22478 v -7.23767 -7.23768 l -1.22129,-0.56681 c -0.6717,-0.31174 -2.4379,-0.66835 -3.92488,-0.79246 -3.41472,-0.285 -5.5706,0.65306 -7.2173,3.14038 -1.08316,1.6361 -1.18165,2.15777 -1.18165,6.25904 0,7.16269 1.56309,9.27255 6.68109,9.01817 1.95915,-0.0974 3.24868,-0.46423 4.7741,-1.35819 z"
   id="path68021" /><path
   style="fill:#2c2255;fill-opacity:1;stroke-width:0.444102"
   d="m 490.44999,390.74942 c -5.19078,-1.85475 -7.35975,-4.99976 -7.62631,-11.05814 -0.36547,-8.30656 4.04849,-13.54906 11.46493,-13.61697 6.15774,-0.0564 9.72085,3.35941 10.12838,9.70962 l 0.21343,3.32575 h -9.16249 c -10.23056,0 -9.64878,-0.21442 -8.69885,3.20594 1.3312,4.79319 6.13624,6.98376 12.01525,5.47763 1.55678,-0.39883 3.27586,-1.01694 3.82017,-1.37359 1.40334,-0.9195 1.46501,-0.86608 1.46501,1.2689 v 1.91736 l -2.55358,0.81338 c -3.7594,1.19746 -8.2626,1.33179 -11.06594,0.33012 z m 10.37976,-16.15334 c -1.04397,-7.78334 -12.62733,-7.45451 -14.28965,0.40565 l -0.30524,1.44333 h 7.42144 7.42145 z"
   id="path68097" /><path
   style="fill:#2c2255;fill-opacity:1;stroke-width:0.444102"
   d="m 511.17515,378.88763 v -12.21281 h 1.97292 1.97293 l 0.13656,1.74451 0.13656,1.74452 2.59628,-1.61516 c 2.11266,-1.3143 3.12603,-1.64889 5.44025,-1.79625 l 2.84397,-0.18109 v 1.9574 1.95741 l -3.21974,-0.009 c -2.29013,-0.006 -3.66852,0.22819 -4.7741,0.8125 -3.23984,1.71227 -3.10871,1.2484 -3.10871,10.99755 v 8.81321 h -1.99846 -1.99846 z"
   id="path68136" /><path
   style="fill:#f7941e;fill-opacity:1;stroke-width:0.444102"
   d="m 237.16417,360.23534 v -1.99846 h 2.22051 2.22051 v 1.99846 1.99846 h -2.22051 -2.22051 z"
   id="path72580" /><path
   style="fill:#f7941e;fill-opacity:1;stroke-width:0.444102"
   d="m 430.79267,360.23534 v -1.99846 h 2.22051 2.22051 v 1.99846 1.99846 h -2.22051 -2.22051 z"
   id="path72619" /><path
   style="fill:#2c2255;fill-opacity:1;stroke-width:0.444102"
   d="m 335.50219,66.948387 c -1.38912,-0.700491 -2.31332,-1.596706 -3.0913,-2.997689 -1.06903,-1.925092 -1.11549,-2.344916 -1.26546,-11.435628 l -0.15568,-9.437169 h 2.04263 2.04263 v 8.674254 c 0,9.687481 0.35398,11.398633 2.53211,12.240337 2.06877,0.799446 5.61724,0.264413 7.99557,-1.20556 l 2.12923,-1.316018 0.12004,-9.196507 0.12003,-9.196506 h 1.7674 1.7674 v 12.212807 12.212807 h -1.77641 c -1.73411,0 -1.77641,-0.03701 -1.77641,-1.554357 0,-0.854897 -0.11325,-1.554358 -0.25168,-1.554358 -0.13842,0 -0.9374,0.523025 -1.77551,1.162278 -3.28733,2.507372 -7.18087,3.027021 -10.42459,1.391309 z"
   id="path6487"
   transform="translate(71.07,323.663)" /><path
   style="fill:#2c2255;fill-opacity:1;stroke-width:0.444102"
   d="M 360.38883,55.290708 V 43.077901 h 1.77641 1.77641 v 12.212807 12.212807 h -1.77641 -1.77641 z"
   id="path6526"
   transform="translate(71.07,323.663)" /><path
   style="fill:#2c2255;fill-opacity:1;stroke-width:0.444102"
   d="m 376.50959,50.183534 c 0,-1.343409 0.0833,-1.892985 0.18501,-1.221281 0.10175,0.671705 0.10175,1.770857 0,2.442562 -0.10176,0.671704 -0.18501,0.122128 -0.18501,-1.221281 z"
   id="path6565"
   transform="translate(71.07,323.663)" /><path
   style="fill:#2c2255;fill-opacity:1;stroke-width:0.444102"
   d="m 372.82369,50.405585 v -17.09793 h 1.7542 1.75421 v 17.09793 17.09793 h -1.75421 -1.7542 z"
   id="path6641"
   transform="translate(71.07,323.663)" /></svg>
